# xmcd
#
# Track frame offsets: 
#        182
#        17597
#        33082
#        49537
#        68375
#        88172
#        105955
#        124280
#        141777
#        164942
#        182932
#        199450
#        248110
#        268135
#
# Disc length: 3837 seconds
#
# Revision: 1
# Processed by: cddbd v1.5.2PL0 Copyright (c) Steve Scherf et al.
# Submitted via: ExactAudioCopy v0.95b4
#
DISCID=c50efb0e
DTITLE=Echo and the Bunnymen - Evergreen [Japan]
DYEAR=1997
DGENRE=Rock
TTITLE0=Don't Let It Get You Down
TTITLE1=In My Time
TTITLE2=I Want To Be There (When You Come)
TTITLE3=Evergreen
TTITLE4=I'll Fly Tonight
TTITLE5=Nothing Lasts Forever
TTITLE6=Baseball Bill
TTITLE7=Altamont
TTITLE8=Just a Touch Away
TTITLE9=Empire State Halo
TTITLE10=Too Young To Kneel
TTITLE11=Forgiven
TTITLE12=Watchtower
TTITLE13=Hurricane
EXTD=YEAR: 1997
EXTT0=
EXTT1=
EXTT2=
EXTT3=
EXTT4=
EXTT5=
EXTT6=
EXTT7=
EXTT8=
EXTT9=
EXTT10=
EXTT11=
EXTT12=
EXTT13=
PLAYORDER=
